<mxfile host="65bd71144e">
    <diagram id="F7ulRKgjgNDQQFNuWUBc" name="Page-1">
        <mxGraphModel dx="311" dy="382" grid="1" gridSize="10" guides="1" tooltips="1" connect="1" arrows="1" fold="1" page="1" pageScale="1" pageWidth="850" pageHeight="1100" math="0" shadow="0">
            <root>
                <mxCell id="0"/>
                <mxCell id="1" parent="0"/>
                <mxCell id="5" style="edgeStyle=none;html=1;exitX=0.5;exitY=1;exitDx=0;exitDy=0;entryX=0.5;entryY=0;entryDx=0;entryDy=0;" parent="1" source="2" edge="1">
                    <mxGeometry relative="1" as="geometry">
                        <mxPoint x="320" y="200.0000000000001" as="targetPoint"/>
                        <Array as="points">
                            <mxPoint x="425" y="170"/>
                            <mxPoint x="320" y="170"/>
                        </Array>
                    </mxGeometry>
                </mxCell>
                <mxCell id="6" style="edgeStyle=none;html=1;exitX=0.5;exitY=1;exitDx=0;exitDy=0;entryX=0.5;entryY=0;entryDx=0;entryDy=0;" parent="1" source="2" edge="1">
                    <mxGeometry relative="1" as="geometry">
                        <mxPoint x="530" y="200.0000000000001" as="targetPoint"/>
                        <Array as="points">
                            <mxPoint x="425" y="170"/>
                            <mxPoint x="530" y="170"/>
                        </Array>
                    </mxGeometry>
                </mxCell>
                <mxCell id="2" value="&lt;i&gt;&lt;font face=&quot;Georgia&quot;&gt;SVM&lt;sub&gt;AB&lt;/sub&gt;&lt;br&gt;{A vs B}&lt;br&gt;&lt;/font&gt;&lt;/i&gt;" style="rounded=1;whiteSpace=wrap;html=1;" parent="1" vertex="1">
                    <mxGeometry x="365" y="80" width="120" height="60" as="geometry"/>
                </mxCell>
                <mxCell id="22" value="&lt;font face=&quot;Georgia&quot;&gt;&lt;i&gt;SVM&lt;sub&gt;A&lt;span style=&quot;font-size: 8px&quot;&gt;0&lt;br&gt;&lt;/span&gt;&lt;/sub&gt;&lt;/i&gt;&lt;/font&gt;&lt;font face=&quot;Georgia&quot;&gt;&lt;i&gt;{A&lt;sub&gt;1&amp;nbsp;&lt;/sub&gt;vs A&lt;sub&gt;0&lt;/sub&gt;}&lt;/i&gt;&lt;br&gt;&lt;/font&gt;" style="rounded=1;whiteSpace=wrap;html=1;" parent="1" vertex="1">
                    <mxGeometry x="260" y="200" width="120" height="60" as="geometry"/>
                </mxCell>
                <mxCell id="25" value="&lt;font face=&quot;Georgia&quot;&gt;&lt;i&gt;SVM&lt;sub&gt;B&lt;span style=&quot;font-size: 8px&quot;&gt;0&lt;br&gt;&lt;/span&gt;&lt;/sub&gt;&lt;/i&gt;&lt;/font&gt;&lt;font face=&quot;Georgia&quot;&gt;&lt;i&gt;{B&lt;sub&gt;1&amp;nbsp;&lt;/sub&gt;vs B&lt;sub&gt;0&lt;/sub&gt;}&lt;/i&gt;&lt;/font&gt;&lt;i&gt;&lt;font face=&quot;Georgia&quot;&gt;&lt;br&gt;&lt;/font&gt;&lt;/i&gt;" style="rounded=1;whiteSpace=wrap;html=1;" parent="1" vertex="1">
                    <mxGeometry x="470" y="200" width="120" height="60" as="geometry"/>
                </mxCell>
            </root>
        </mxGraphModel>
    </diagram>
</mxfile>